<?xml version="1.0" encoding="utf-8"?>
<!-- Svg Vector Icons : http://www.onlinewebfonts.com/icon -->
<!DOCTYPE svg PUBLIC "-//W3C//DTD SVG 1.1//EN" "http://www.w3.org/Graphics/SVG/1.1/DTD/svg11.dtd">
<svg version="1.1" xmlns="http://www.w3.org/2000/svg" xmlns:xlink="http://www.w3.org/1999/xlink" x="0px" y="0px" viewBox="0 0 1000 1000" enable-background="new 0 0 1000 1000" xml:space="preserve">
<metadata> Svg Vector Icons : http://www.onlinewebfonts.com/icon </metadata>
<g><path d="M500,990C229.8,990,10,770.2,10,500C10,229.8,229.8,10,500,10c270.2,0,490,219.8,490,490C990,770.2,770.2,990,500,990z M500,60.4C257.6,60.4,60.4,257.6,60.4,500c0,242.4,197.2,439.6,439.6,439.6c242.4,0,439.6-197.1,439.6-439.6C939.6,257.6,742.4,60.4,500,60.4z"/><path d="M450.3,652.4v-32.3c0-13.6,1-25.8,3-36.5c2-10.7,5-20.9,9.3-30.5c4.3-9.6,9.9-19,17-28c7.1-9.1,16-18.7,26.7-28.9l38.2-36.5c10.7-9.6,19.9-20.4,27.6-32.3c7.7-11.9,11.5-26.3,11.5-43.3c0-22.1-7-40.6-20.8-55.6c-13.9-15-33.6-22.5-59.1-22.5c-13,0-24.7,2.4-35.2,7.2c-10.4,4.8-19.5,11.3-27.1,19.5c-7.7,8.2-13.5,17.7-17.4,28.4c-3.9,10.8-6.2,21.8-6.8,33.1L312.9,385c3.3-27.2,10.6-51.4,21.6-72.6c11-21.2,25.3-39.2,42.8-53.9c17.6-14.7,37.7-25.9,60.3-33.5c22.6-7.7,47-11.4,73-11.4c24.3,0,47.4,3.6,69.2,10.6c21.8,7.1,41,17.6,57.7,31.4c16.7,13.8,29.8,31,39.4,51.4c9.6,20.3,14.4,43.9,14.4,70.4c0,18.1-2,33.9-5.9,47.5c-3.9,13.6-9.6,26-17,37.4c-7.3,11.3-16.2,22.2-26.7,32.6c-10.4,10.4-22.2,21.4-35.2,32.6c-11.3,9.6-20.5,18.2-27.6,25.5c-7.1,7.3-12.7,14.7-17,22.1c-4.3,7.3-7.2,15.2-8.9,23.7c-1.7,8.5-2.6,18.9-2.6,31.4v22.1H450.3z M433.3,770.3c0-18,6.6-33.6,20-46.6c13.2-13,29.3-19.5,47.9-19.5c18.1,0,34,6.2,47.5,18.7c13.6,12.4,20.4,27.7,20.4,45.8c0,18.1-6.7,33.7-20,46.7c-13.3,13-29.3,19.5-48,19.5c-9.1,0-17.7-1.8-25.9-5.1c-8.1-3.4-15.4-7.9-21.5-13.6c-6.2-5.6-11.2-12.4-14.9-20.3C435.1,787.8,433.3,779.3,433.3,770.3z"/></g>
</svg>