<svg xmlns="http://www.w3.org/2000/svg" viewBox="0 0 50 50" id="svg"><path d="M 25 2 C 12.653 2 2.5513906 11.78 2.0253906 24 L 16 24 L 16.058594 24 C 16.556594 19.5 20.368 16 25 16 C 29.632 16 33.443406 19.5 33.941406 24 L 47.974609 24 C 47.448609 11.78 37.347 2 25 2 z M 25 20 A 5 5 0 0 0 25 30 A 5 5 0 0 0 25 20 z M 2.0253906 26 C 2.5513906 38.22 12.653 48 25 48 C 37.347 48 47.448609 38.22 47.974609 26 L 34 26 L 33.941406 26 C 33.443406 30.5 29.632 34 25 34 C 20.368 34 16.556594 30.5 16.058594 26 L 16 26 L 2.0253906 26 z"></path></svg>